<svg xmlns="http://www.w3.org/2000/svg" width="540" height="960" viewBox="0 0 540 960"><rect width="540" height="960" fill="#f6f7f9"/><text x="28" y="55" font-family="sans-serif" font-size="34" font-weight="800" fill="#1c6dd0">W2Full</text><text x="28" y="105" font-family="sans-serif" font-size="26" font-weight="700" fill="#1f2937">Home</text><g font-family="sans-serif"><rect x="26" y="135" width="488" height="125" rx="20" fill="#fff" stroke="#e2e6ea"/><text x="48" y="172" font-size="16" fill="#6b7280">PREZZO ENI PIÙ BASSO</text><text x="48" y="220" font-size="34" font-weight="800" fill="#1c6dd0">1,789 €/L</text><text x="370" y="220" font-size="16" fill="#6b7280">0,8 km</text><rect x="26" y="280" width="488" height="125" rx="20" fill="#fff" stroke="#e2e6ea"/><text x="48" y="317" font-size="16" fill="#25a18e">LA TUA AUTO</text><text x="48" y="365" font-size="30" font-weight="700" fill="#1f2937">6,3 L/100 km</text><text x="310" y="365" font-size="30" font-weight="700" fill="#1f2937">680 km</text><rect x="26" y="425" width="488" height="125" rx="20" fill="#fff" stroke="#e2e6ea"/><text x="48" y="462" font-size="16" fill="#1c6dd0">ULTIMO RIFORNIMENTO</text><text x="48" y="510" font-size="30" font-weight="700" fill="#1f2937">45,12 L · 76,21 €</text><rect x="26" y="570" width="488" height="210" rx="20" fill="#fff" stroke="#e2e6ea"/><text x="48" y="608" font-size="18" fill="#25a18e">STAZIONI VICINE</text><text x="48" y="652" font-size="17" fill="#1f2937">Eni Station</text><text x="390" y="652" font-size="17" fill="#1c6dd0">1,789</text><text x="48" y="690" font-size="17" fill="#1f2937">Q8</text><text x="390" y="690" font-size="17" fill="#1f2937">1,725</text><text x="48" y="728" font-size="17" fill="#1f2937">IP</text><text x="390" y="728" font-size="17" fill="#1f2937">1,739</text><rect x="0" y="890" width="540" height="70" fill="#fff"/><text x="55" y="930" font-size="14" fill="#1c6dd0">Home</text><text x="180" y="930" font-size="14" fill="#6b7280">Rifornimenti</text><text x="330" y="930" font-size="14" fill="#6b7280">Prezzi</text><text x="430" y="930" font-size="14" fill="#6b7280">Impost.</text></g></svg>